<svg width="21" height="20" viewBox="0 0 21 20" fill="none" xmlns="http://www.w3.org/2000/svg">
<g clip-path="url(#clip0_1727_45682)">
<path d="M10.8125 20C16.3353 20 20.8125 15.5228 20.8125 10C20.8125 4.47715 16.3353 0 10.8125 0C5.28965 0 0.8125 4.47715 0.8125 10C0.8125 15.5228 5.28965 20 10.8125 20Z" fill="#F0F0F0"/>
<path d="M6.46484 13.4766L7.33441 19.3764C8.4177 19.7784 9.58945 19.9983 10.8127 19.9983C15.1123 19.9983 18.7777 17.2846 20.1906 13.4766H6.46484Z" fill="black"/>
<path d="M6.46484 6.52176L7.33441 0.621914C8.4177 0.219922 9.58945 0 10.8127 0C15.1123 0 18.7777 2.71375 20.1906 6.52176H6.46484Z" fill="#009739"/>
<path d="M0.812988 9.9991C0.812988 14.2987 3.52678 17.9642 7.33475 19.3771V0.621094C3.52678 2.03402 0.812988 5.69945 0.812988 9.9991Z" fill="#EF3340"/>
</g>
<defs>
<clipPath id="clip0_1727_45682">
<rect width="20" height="20" fill="white" transform="translate(0.8125)"/>
</clipPath>
</defs>
</svg>
