<svg width="143" height="29" viewBox="0 0 143 29" fill="none" xmlns="http://www.w3.org/2000/svg">
<path d="M0 28.0588L2.62803 12.7542L12.1282 10.5354L4.75763 22.3686L18.6378 16.9652C21.7643 15.7427 25.1777 17.9916 25.2381 21.3423C25.2381 21.3876 25.2381 21.4329 25.2381 21.4781C25.2381 25.01 22.4439 27.8928 18.955 28.0437H0V28.0588Z" fill="#FFBA14"/>
<path d="M23.7277 12.2709L12.9437 16.3159L20.1028 5.07137L3.12636 9.90125L4.81796 0H21.4923C25.4042 0 28.3947 3.51676 27.7452 7.38066C27.3827 9.61448 25.8422 11.471 23.7277 12.2709Z" fill="#0068B3"/>
<path d="M48.4066 9.4344C48.4066 9.97776 48.3311 10.4758 48.165 10.9135C47.9989 11.3513 47.7874 11.7286 47.5004 12.0757C47.2135 12.4229 46.8812 12.7247 46.5036 12.9813C46.126 13.253 45.7182 13.4945 45.2651 13.7209C45.4766 13.7964 45.7182 13.9171 46.0052 14.0681C46.2921 14.2341 46.564 14.4454 46.8208 14.7322C47.0775 15.0189 47.3041 15.3812 47.4853 15.8189C47.6666 16.2566 47.7572 16.8 47.7572 17.449C47.7572 18.2942 47.576 19.0791 47.2135 19.8035C46.851 20.528 46.3224 21.1318 45.6125 21.66C44.9026 22.1732 44.0417 22.5807 43.0147 22.8826C41.9876 23.1694 40.7944 23.3203 39.4653 23.3203H31.0526L34.8738 5.34409H42.3199C43.06 5.34409 43.785 5.38937 44.5099 5.49503C45.2349 5.60068 45.8844 5.79689 46.4583 6.09876C47.0322 6.40063 47.5004 6.82324 47.8629 7.35151C48.2254 7.89487 48.4066 8.58917 48.4066 9.4344ZM38.6648 21.5242C39.2237 21.5242 39.707 21.3582 40.0846 21.0412C40.4622 20.7242 40.7793 20.3318 41.021 19.8488C41.2627 19.3809 41.4439 18.8828 41.5496 18.3697C41.6553 17.8565 41.7007 17.3886 41.7007 16.9962C41.7007 16.3321 41.5647 15.8189 41.2929 15.4265C41.021 15.034 40.583 14.8529 39.9788 14.8529H38.9367L37.5472 21.5242H38.6648ZM40.7038 12.8606C41.1116 12.8606 41.4741 12.7398 41.7611 12.4983C42.048 12.2569 42.2897 11.9399 42.486 11.5777C42.6673 11.2154 42.8183 10.8079 42.9089 10.3853C42.9996 9.96266 43.0449 9.58533 43.0449 9.23818C43.0449 8.69482 42.924 8.22693 42.6673 7.8345C42.4105 7.44207 42.0178 7.26095 41.459 7.26095H40.6132L39.3898 12.8606H40.7038Z" fill="#101828"/>
<path d="M59.2207 11.1386H64.9902L62.3924 23.3038H57.8009L57.2874 21.4926H57.1213C56.6228 22.0813 55.9583 22.5643 55.1276 22.9567C54.2818 23.3491 53.436 23.5302 52.5902 23.5302C51.4574 23.5302 50.5663 23.2435 49.9319 22.6699C49.2976 22.0964 48.9653 21.3417 48.9653 20.421C48.9653 19.9531 49.0408 19.3645 49.207 18.6551C49.3731 17.9457 49.509 17.2816 49.645 16.6628L50.8382 11.1386H56.5926L55.1729 17.7646C55.1276 17.9155 55.0974 18.0966 55.0521 18.3079C55.0068 18.5192 54.9766 18.7155 54.9312 18.9117C54.8859 19.1079 54.8557 19.3041 54.8255 19.4852C54.7953 19.6663 54.7802 19.8173 54.7802 19.9229C54.7802 20.2097 54.8406 20.4512 54.9614 20.6474C55.0823 20.8436 55.3088 20.9493 55.626 20.9493C55.9583 20.9493 56.2906 20.8285 56.5926 20.6172C56.8947 20.3908 57.1364 20.1795 57.3025 19.9682L59.2207 11.1386Z" fill="#101828"/>
<path d="M72.3316 11.1386L73.1774 19.455L77.6481 11.1386H80.6537L73.8269 23.3038C73.1472 24.4962 72.4524 25.4018 71.7577 26.0508C71.0629 26.6848 70.2926 27.1677 69.477 27.4696C68.6614 27.7715 67.7552 27.9526 66.7584 27.9979C65.7615 28.0432 64.6439 28.0733 63.3752 28.0733L63.7981 26.1263C64.4173 26.1263 65.0064 26.1112 65.535 26.0961C66.0787 26.081 66.5016 26.0206 66.8188 25.9301C67.2568 25.8093 67.5589 25.6131 67.7552 25.3264C67.9365 25.0396 68.0422 24.6019 68.0422 24.0434C68.0422 23.6661 68.012 23.2284 67.9365 22.7454C67.876 22.2624 67.8005 21.7341 67.725 21.1908L66.3355 11.1688H72.3316V11.1386Z" fill="#101828"/>
<path d="M87.4496 12.9501C87.8423 12.5728 88.2954 12.2256 88.7787 11.9086C89.2167 11.6521 89.7151 11.3955 90.3042 11.1691C90.8932 10.9427 91.5427 10.837 92.2525 10.837C93.2343 10.837 94.0499 11.0936 94.6842 11.5917C95.3186 12.0898 95.6508 12.769 95.6508 13.6444C95.6508 13.8859 95.6206 14.1877 95.5602 14.5349C95.4998 14.882 95.4394 15.2443 95.3639 15.6216C95.2884 15.9989 95.2128 16.3763 95.1222 16.7687C95.0316 17.1611 94.9712 17.4932 94.9108 17.7951L93.7176 23.3192H87.9631L89.5188 15.9386C89.549 15.6971 89.6094 15.4405 89.6547 15.1839C89.7 14.9273 89.7453 14.7009 89.7453 14.4896C89.7453 14.2028 89.6698 13.9764 89.5339 13.7953C89.3979 13.6142 89.1865 13.5236 88.8995 13.5236C88.5672 13.5236 88.235 13.6444 87.9178 13.8859C87.6006 14.1274 87.359 14.3387 87.1928 14.5047L85.32 23.3041H79.5504L82.1633 11.1389H86.785L87.2985 12.9501H87.4496Z" fill="#101828"/>
<path d="M95.9527 21.1002L103.52 13.0403H97.7651L98.1276 11.1386H110.044L109.591 13.1762L102.236 21.4172H108.489L108.156 23.3189H95.5298L95.9527 21.1002Z" fill="#101828"/>
<path d="M115.859 17.6147C115.783 18.0374 115.738 18.4298 115.708 18.8071C115.678 19.1845 115.663 19.5316 115.663 19.8335C115.663 19.9995 115.678 20.1957 115.693 20.407C115.708 20.6183 115.753 20.8145 115.814 20.9806C115.874 21.1617 115.98 21.3126 116.101 21.4334C116.221 21.5541 116.403 21.6145 116.629 21.6145C116.795 21.6145 116.992 21.5541 117.203 21.4485C117.415 21.3277 117.641 21.1768 117.853 20.9655C118.064 20.7542 118.276 20.4976 118.472 20.1957C118.668 19.8938 118.819 19.5618 118.94 19.1694H123.577L122.837 22.2031C122.459 22.4446 122.021 22.6559 121.538 22.822C121.039 22.988 120.526 23.1238 119.982 23.2295C119.439 23.3351 118.88 23.4106 118.306 23.4559C117.747 23.5012 117.203 23.5313 116.69 23.5313C115.738 23.5313 114.862 23.4408 114.062 23.2748C113.246 23.1087 112.536 22.8069 111.932 22.3993C111.328 21.9918 110.845 21.4334 110.497 20.7391C110.15 20.0448 109.969 19.1996 109.969 18.1732C109.969 17.2525 110.12 16.3469 110.407 15.4564C110.694 14.5659 111.192 13.781 111.872 13.0867C112.566 12.3924 113.488 11.8491 114.651 11.4265C115.814 11.0189 117.264 10.8076 119.001 10.8076C120.888 10.8076 122.308 11.0944 123.26 11.6831C124.211 12.2717 124.695 13.1773 124.695 14.43C124.695 14.9432 124.619 15.4866 124.468 16.0903C124.317 16.679 124.09 17.1921 123.788 17.5997H115.859V17.6147ZM119.62 14.2489C119.62 13.6603 119.529 13.2679 119.333 13.0566C119.136 12.8452 118.91 12.7396 118.653 12.7396C118.351 12.7396 118.079 12.8452 117.822 13.0415C117.566 13.2377 117.339 13.5094 117.128 13.8263C116.916 14.1584 116.735 14.5357 116.554 14.9583C116.388 15.3809 116.237 15.8337 116.131 16.3016H119.363C119.393 16.0752 119.439 15.8337 119.484 15.5922C119.514 15.3809 119.559 15.1545 119.59 14.913C119.605 14.6866 119.62 14.4602 119.62 14.2489Z" fill="#101828"/>
<path d="M130.66 23.3043H124.89L128.908 4.28663H134.708L130.66 23.3043Z" fill="#101828"/>
<path d="M138.952 23.3043H133.183L137.2 4.28663H143L138.952 23.3043Z" fill="#101828"/>
</svg>
