<svg width="40" height="40" viewBox="0 0 40 40" fill="none" xmlns="http://www.w3.org/2000/svg">
<rect width="40" height="40" rx="20" fill="#FFF8E9"/>
<path d="M10.0835 31.6663V11.833C10.0835 9.49967 11.6468 8.33301 13.5835 8.33301H22.9168C24.8535 8.33301 26.4168 9.49967 26.4168 11.833V31.6663H10.0835Z" stroke="#0068B3" stroke-width="1.5" stroke-linecap="round" stroke-linejoin="round"/>
<path d="M8.3335 31.667H28.1668" stroke="#0068B3" stroke-width="1.5" stroke-linecap="round" stroke-linejoin="round"/>
<path d="M15.7885 17.6663H20.7235C21.9368 17.6663 22.9285 17.083 22.9285 15.4613V14.0263C22.9285 12.4046 21.9368 11.8213 20.7235 11.8213H15.7885C14.5752 11.8213 13.5835 12.4046 13.5835 14.0263V15.4613C13.5835 17.083 14.5752 17.6663 15.7885 17.6663Z" stroke="#0068B3" stroke-width="1.5" stroke-linecap="round" stroke-linejoin="round"/>
<path d="M13.5835 21.167H17.0835" stroke="#0068B3" stroke-width="1.5" stroke-linecap="round" stroke-linejoin="round"/>
<path d="M26.4165 24.6783L31.6665 24.6667V17.6667L29.3332 16.5" stroke="#0068B3" stroke-width="1.5" stroke-linecap="round" stroke-linejoin="round"/>
</svg>
