<svg width="40" height="40" viewBox="0 0 40 40" fill="none" xmlns="http://www.w3.org/2000/svg">
<rect width="40" height="40" rx="20" fill="#FFF8E9"/>
<path d="M31.6668 19.9997C31.6668 13.5597 26.4402 8.33301 20.0002 8.33301C13.5602 8.33301 8.3335 13.5597 8.3335 19.9997C8.3335 26.4397 13.5602 31.6663 20.0002 31.6663" stroke="#0068B3" stroke-width="1.5" stroke-linecap="round" stroke-linejoin="round"/>
<path d="M15.3335 9.5H16.5002C14.2252 16.3133 14.2252 23.6867 16.5002 30.5H15.3335" stroke="#0068B3" stroke-width="1.5" stroke-linecap="round" stroke-linejoin="round"/>
<path d="M23.5 9.5C24.6317 12.9067 25.2033 16.4533 25.2033 20" stroke="#0068B3" stroke-width="1.5" stroke-linecap="round" stroke-linejoin="round"/>
<path d="M9.5 24.6667V23.5C12.9067 24.6317 16.4533 25.2034 20 25.2034" stroke="#0068B3" stroke-width="1.5" stroke-linecap="round" stroke-linejoin="round"/>
<path d="M9.5 16.4992C16.3133 14.2242 23.6867 14.2242 30.5 16.4992" stroke="#0068B3" stroke-width="1.5" stroke-linecap="round" stroke-linejoin="round"/>
<path d="M27.2333 30.9667C29.2952 30.9667 30.9667 29.2952 30.9667 27.2333C30.9667 25.1715 29.2952 23.5 27.2333 23.5C25.1715 23.5 23.5 25.1715 23.5 27.2333C23.5 29.2952 25.1715 30.9667 27.2333 30.9667Z" stroke="#0068B3" stroke-width="1.5" stroke-linecap="round" stroke-linejoin="round"/>
<path d="M31.6667 31.6667L30.5 30.5" stroke="#0068B3" stroke-width="1.5" stroke-linecap="round" stroke-linejoin="round"/>
</svg>
