<svg width="40" height="40" viewBox="0 0 40 40" fill="none" xmlns="http://www.w3.org/2000/svg">
<rect width="40" height="40" rx="20" fill="#FFF8E9"/>
<g clip-path="url(#clip0_0_214)">
<path d="M24.6668 28.1663L25.7366 26.0605C26.1158 25.3027 26.3417 24.4776 26.4016 23.6324C26.4615 22.7872 26.354 21.9385 26.0854 21.1348L24.7706 17.1915C24.7122 17.0099 24.6094 16.8457 24.4715 16.7139C24.3335 16.5821 24.1649 16.4868 23.9808 16.4367C23.0381 16.1998 21.5798 15.9163 20.0001 15.9163C18.4204 15.9163 16.9621 16.1998 16.0183 16.4367C15.8347 16.4868 15.6665 16.5819 15.5288 16.7132C15.3911 16.8446 15.2883 17.0082 15.2296 17.1892L13.9148 21.1348C13.6461 21.9389 13.5387 22.7881 13.5987 23.6337C13.6588 24.4794 13.8851 25.3048 14.2648 26.0628L15.3334 28.1663M17.6668 13.583V11.2497M22.3334 13.583V11.2497M15.9168 8.33301V10.6663C15.9168 10.8211 15.9782 10.9694 16.0876 11.0788C16.197 11.1882 16.3454 11.2497 16.5001 11.2497H23.5001C23.6548 11.2497 23.8032 11.1882 23.9126 11.0788C24.022 10.9694 24.0834 10.8211 24.0834 10.6663V8.33301C24.0834 7.86888 23.8991 7.42376 23.5709 7.09557C23.2427 6.76738 22.7976 6.58301 22.3334 6.58301H17.6668C17.2026 6.58301 16.7575 6.76738 16.4293 7.09557C16.1011 7.42376 15.9168 7.86888 15.9168 8.33301Z" stroke="#0068B3" stroke-width="1.5" stroke-miterlimit="10" stroke-linecap="round" stroke-linejoin="round"/>
<path d="M28.0955 26.47C28.5238 25.4242 28.746 24.3055 28.75 23.1753C28.75 22.2303 28.5983 21.2923 28.2997 20.3975L26.9848 16.4542C26.8033 15.8999 26.4851 15.4003 26.0596 15.0015C25.634 14.6026 25.1148 14.3174 24.55 14.1722C23.381 13.8793 21.7652 13.583 20 13.583C18.2348 13.583 16.619 13.8793 15.45 14.1733C14.8854 14.3184 14.3664 14.6032 13.9409 15.0016C13.5154 15.4 13.197 15.8992 13.0152 16.453L11.7003 20.3963C11.4018 21.2924 11.2497 22.2308 11.25 23.1753C11.25 24.3082 11.481 25.4235 11.9045 26.47" stroke="#0068B3" stroke-width="1.5" stroke-miterlimit="10" stroke-linecap="round" stroke-linejoin="round"/>
<path d="M12.2267 33.416H27.86C28.4048 33.416 28.9042 33.1068 29.1492 32.6192C29.6543 31.6088 29.9168 29.328 29.9168 28.1975V27.8592C30.0139 27.6646 30.0657 27.4506 30.0684 27.2332C30.0711 27.0158 30.0246 26.8006 29.9323 26.6037C29.8401 26.4068 29.7045 26.2334 29.5358 26.0963C29.367 25.9592 29.1695 25.862 28.9579 25.812C28.7463 25.7621 28.5261 25.7606 28.3139 25.8077C28.1016 25.8549 27.9028 25.9494 27.7322 26.0842C27.5616 26.2191 27.4238 26.3907 27.3289 26.5864C27.2341 26.782 27.1847 26.9966 27.1845 27.214L26.4168 28.7493C26.4168 28.7493 23.5002 27.5827 20.0002 27.5827C16.5002 27.5827 13.5835 28.7493 13.5835 28.7493L12.8158 27.2128C12.6707 26.922 12.4316 26.6887 12.1372 26.5508C11.8428 26.4129 11.5105 26.3785 11.1941 26.4532C10.8777 26.5279 10.5959 26.7073 10.3943 26.9623C10.1927 27.2173 10.0832 27.5329 10.0835 27.858C10.0835 28.8322 10.2702 30.9637 10.6318 31.869L10.8885 32.5095C11.1067 33.0578 11.6363 33.416 12.2267 33.416Z" stroke="#0068B3" stroke-width="1.5" stroke-miterlimit="10" stroke-linecap="round" stroke-linejoin="round"/>
<path d="M14.167 30.5C14.167 30.5 15.917 31.0833 20.0003 31.0833C24.0837 31.0833 25.8337 30.5 25.8337 30.5" stroke="#0068B3" stroke-miterlimit="10" stroke-linecap="round" stroke-linejoin="round"/>
</g>
<defs>
<clipPath id="clip0_0_214">
<rect width="28" height="28" fill="white" transform="translate(6 6)"/>
</clipPath>
</defs>
</svg>
