<svg width="40" height="40" viewBox="0 0 40 40" fill="none" xmlns="http://www.w3.org/2000/svg">
<rect width="40" height="40" rx="20" fill="#FFF8E9"/>
<g clip-path="url(#clip0_0_209)">
<path d="M17.3752 19.8836C16.6757 18.6178 16.3855 17.1663 16.5444 15.7288C16.7033 14.2913 17.3036 12.9383 18.2627 11.8559C19.2218 10.7734 20.4927 10.0146 21.9006 9.68369C23.3085 9.35283 24.7843 9.46617 26.1252 10.0081L21.7502 14.7495L22.3692 17.6305L25.2502 18.2495L29.9916 13.8745C30.5335 15.2154 30.6469 16.6912 30.316 18.0991C29.9851 19.507 29.2263 20.7779 28.1438 21.737C27.0614 22.6961 25.7084 23.2964 24.2709 23.4553C22.8334 23.6143 21.3819 23.324 20.1161 22.6245L13.9845 29.7339C13.4914 30.2271 12.8226 30.5041 12.1252 30.5041C11.4278 30.5041 10.7589 30.2271 10.2658 29.7339C9.77265 29.2408 9.49561 28.5719 9.49561 27.8745C9.49561 27.1771 9.77265 26.5083 10.2658 26.0152L17.3752 19.8836Z" stroke="#0068B3" stroke-width="1.5" stroke-linecap="round" stroke-linejoin="round"/>
</g>
<defs>
<clipPath id="clip0_0_209">
<rect width="28" height="28" fill="white" transform="translate(6 6)"/>
</clipPath>
</defs>
</svg>
