<svg width="40" height="40" viewBox="0 0 40 40" fill="none" xmlns="http://www.w3.org/2000/svg">
<rect width="40" height="40" rx="20" fill="#FFF8E9"/>
<path d="M19.1377 25.4211V26.1167L18.444 26.169C16.1962 26.3384 14.2377 27.0397 12.8616 28.0336C11.489 29.0249 10.7568 30.2534 10.75 31.5097C10.7583 31.5281 10.8152 31.6513 11.1396 31.8509C11.5301 32.0912 12.1451 32.3347 12.9714 32.5498C14.6127 32.9771 16.9211 33.25 19.4994 33.25C22.0777 33.25 24.3864 32.9771 26.028 32.5498C26.8545 32.3347 27.4696 32.0912 27.8603 31.8508C28.1847 31.6512 28.2417 31.5281 28.25 31.5097C28.2432 30.2535 27.5107 29.025 26.1379 28.0336C24.7615 27.0397 22.8031 26.3384 20.5559 26.169L19.8623 26.1167V25.4211V19.4154V18.6654H20.6123H20.6774V17.5082V16.9954L21.1552 16.8093C21.8788 16.5275 22.4985 16.0688 22.959 15.4951C21.9066 15.8295 20.7312 16.0136 19.4994 16.0136C18.2681 16.0136 17.0929 15.8294 16.0404 15.4949C16.5007 16.0687 17.1204 16.5274 17.8446 16.8092L18.3226 16.9953V17.5082V18.6654H18.3877H19.1377V19.4154V25.4211Z" stroke="#0068B3" stroke-width="1.5"/>
<path d="M16.5171 11.599V9.5185C16.0651 10.2218 15.7801 11.0984 15.7523 12.0801C16.6692 12.7837 17.9949 13.25 19.4995 13.25C21.0039 13.25 22.3297 12.7837 23.2477 12.08C23.2198 11.0975 22.9345 10.2204 22.4818 9.51683V11.599C22.4818 12.0804 22.1259 12.6758 21.451 12.6758C20.9297 12.6758 20.5989 12.3206 20.4752 11.9372C20.3511 12.3213 20.0188 12.6758 19.4995 12.6758C18.981 12.6758 18.6488 12.3225 18.5242 11.9389C18.3996 12.3225 18.0675 12.6758 17.549 12.6758C16.8777 12.6758 16.5171 12.0845 16.5171 11.599ZM18.4459 7.93407C18.4776 7.99411 18.5037 8.05641 18.5242 8.11952C18.5518 8.03457 18.5896 7.95109 18.6373 7.87261C18.573 7.8911 18.5092 7.9116 18.4459 7.93407ZM20.5538 7.93418C20.4902 7.9116 20.4261 7.891 20.3615 7.87244C20.4095 7.9515 20.4475 8.03563 20.4752 8.12123C20.4957 8.0576 20.522 7.99476 20.5538 7.93418Z" fill="#1D2939" stroke="#0068B3" stroke-width="1.5"/>
</svg>
