<svg width="40" height="40" viewBox="0 0 40 40" fill="none" xmlns="http://www.w3.org/2000/svg">
<rect width="40" height="40" rx="20" fill="#FFF8E9"/>
<g clip-path="url(#clip0_0_200)">
<path d="M13 27.875C14.4497 27.875 15.625 26.6997 15.625 25.25C15.625 23.8003 14.4497 22.625 13 22.625C11.5503 22.625 10.375 23.8003 10.375 25.25C10.375 26.6997 11.5503 27.875 13 27.875Z" stroke="#0068B3" stroke-width="1.5" stroke-linecap="round" stroke-linejoin="round"/>
<path d="M27 27.875C28.4497 27.875 29.625 26.6997 29.625 25.25C29.625 23.8003 28.4497 22.625 27 22.625C25.5503 22.625 24.375 23.8003 24.375 25.25C24.375 26.6997 25.5503 27.875 27 27.875Z" stroke="#0068B3" stroke-width="1.5" stroke-linecap="round" stroke-linejoin="round"/>
<path d="M15.625 25.25H24.375" stroke="#0068B3" stroke-width="1.5" stroke-linecap="round" stroke-linejoin="round"/>
<path d="M29.625 25.25H32.25C32.4821 25.25 32.7046 25.1578 32.8687 24.9937C33.0328 24.8296 33.125 24.6071 33.125 24.375V20C33.125 19.7679 33.0328 19.5454 32.8687 19.3813C32.7046 19.2172 32.4821 19.125 32.25 19.125H28.75L23.7559 14.1309C23.592 13.9672 23.3697 13.8751 23.138 13.875H10.8431C10.6992 13.8751 10.5576 13.9107 10.4307 13.9786C10.3038 14.0465 10.1956 14.1447 10.1158 14.2644L6.875 19.125V24.375C6.875 24.6071 6.96719 24.8296 7.13128 24.9937C7.29538 25.1578 7.51794 25.25 7.75 25.25H10.375" stroke="#0068B3" stroke-width="1.5" stroke-linecap="round" stroke-linejoin="round"/>
<path d="M28.75 19.125H6.875" stroke="#0068B3" stroke-width="1.5" stroke-linecap="round" stroke-linejoin="round"/>
</g>
<defs>
<clipPath id="clip0_0_200">
<rect width="28" height="28" fill="white" transform="translate(6 6)"/>
</clipPath>
</defs>
</svg>
