<svg width="143" height="28" viewBox="0 0 143 28" fill="none" xmlns="http://www.w3.org/2000/svg">
<g id="Logo">
<g id="Group">
<g id="Group_2">
<path id="Vector" d="M0 27.9848L2.62113 12.7202L12.0964 10.5073L4.74516 22.3095L18.589 16.9202C21.7072 15.7009 25.1117 17.9439 25.1719 21.2858C25.1719 21.331 25.1719 21.3762 25.1719 21.4213C25.1719 24.9439 22.3851 27.8192 18.9053 27.9697H0V27.9848Z" fill="url(#paint0_linear_2128_160493)"/>
</g>
<g id="Group_3">
<path id="Vector_2" d="M23.6654 12.2382L12.9098 16.2727L20.0501 5.05758L3.11816 9.8748L4.80533 -0.000488281H21.436C25.3375 -0.000488281 28.3202 3.50704 27.6725 7.36081C27.3109 9.58878 25.7744 11.4404 23.6654 12.2382Z" fill="url(#paint1_linear_2128_160493)"/>
</g>
</g>
<g id="Group_4">
<path id="Vector_3" d="M48.2797 9.40917C48.2797 9.9511 48.2044 10.4479 48.0387 10.8844C47.873 11.321 47.6621 11.6973 47.3759 12.0436C47.0897 12.3898 46.7582 12.6909 46.3816 12.9468C46.005 13.2178 45.5983 13.4586 45.1464 13.6844C45.3573 13.7597 45.5983 13.8801 45.8845 14.0307C46.1708 14.1963 46.4419 14.407 46.698 14.693C46.9541 14.9791 47.18 15.3404 47.3608 15.7769C47.5416 16.2135 47.632 16.7554 47.632 17.4027C47.632 18.2457 47.4512 19.0285 47.0897 19.7511C46.7281 20.4737 46.2009 21.0759 45.4929 21.6027C44.7849 22.1146 43.9262 22.521 42.9019 22.8221C41.8775 23.1081 40.6875 23.2587 39.3618 23.2587H30.9712L34.7824 5.32959H42.2089C42.9471 5.32959 43.6701 5.37475 44.3932 5.48013C45.1163 5.5855 45.764 5.7812 46.3365 6.08228C46.9089 6.38335 47.3759 6.80486 47.7374 7.33174C48.0989 7.87368 48.2797 8.56615 48.2797 9.40917ZM38.5634 21.4673C39.1208 21.4673 39.6029 21.3017 39.9795 20.9855C40.3561 20.6694 40.6724 20.278 40.9134 19.7963C41.1544 19.3296 41.3352 18.8328 41.4407 18.321C41.5461 17.8092 41.5913 17.3425 41.5913 16.9511C41.5913 16.2887 41.4557 15.7769 41.1846 15.3855C40.9134 14.9941 40.4766 14.8135 39.874 14.8135H38.8346L37.4487 21.4673H38.5634V21.4673ZM40.5971 12.8264C41.0038 12.8264 41.3653 12.7059 41.6516 12.4651C41.9378 12.2242 42.1788 11.9081 42.3746 11.5468C42.5554 11.1855 42.706 10.7791 42.7964 10.3576C42.8868 9.93605 42.932 9.5597 42.932 9.21347C42.932 8.67153 42.8115 8.20486 42.5554 7.81346C42.2993 7.42207 41.9076 7.24142 41.3503 7.24142H40.5067L39.2865 12.8264H40.5971V12.8264Z" fill="#101828"/>
<path id="Vector_4" d="M59.0654 11.1104H64.8198L62.2288 23.2437H57.6493L57.1372 21.4372H56.9715C56.4744 22.0243 55.8115 22.5061 54.983 22.8975C54.1394 23.2889 53.2959 23.4695 52.4523 23.4695C51.3225 23.4695 50.4337 23.1835 49.801 22.6114C49.1683 22.0394 48.8369 21.2867 48.8369 20.3684C48.8369 19.9018 48.9122 19.3147 49.0779 18.6071C49.2436 17.8996 49.3792 17.2372 49.5148 16.62L50.7048 11.1104H56.4442L55.0282 17.719C54.983 17.8695 54.9529 18.0501 54.9077 18.2609C54.8625 18.4717 54.8324 18.6674 54.7872 18.8631C54.742 19.0588 54.7119 19.2545 54.6817 19.4351C54.6516 19.6157 54.6365 19.7663 54.6365 19.8717C54.6365 20.1577 54.6968 20.3985 54.8173 20.5942C54.9378 20.7899 55.1638 20.8953 55.4801 20.8953C55.8115 20.8953 56.1429 20.7749 56.4442 20.5641C56.7455 20.3383 56.9865 20.1276 57.1522 19.9168L59.0654 11.1104Z" fill="#101828"/>
<path id="Vector_5" d="M72.1419 11.1104L72.9855 19.405L77.4444 11.1104H80.4422L73.6333 23.2437C72.9554 24.433 72.2624 25.3362 71.5695 25.9835C70.8766 26.6158 70.1083 27.0975 69.2948 27.3986C68.4814 27.6996 67.5775 27.8803 66.5833 27.9254C65.5891 27.9706 64.4744 28.0007 63.209 28.0007L63.6308 26.0588C64.2484 26.0588 64.8359 26.0437 65.3631 26.0287C65.9054 26.0136 66.3272 25.9534 66.6436 25.8631C67.0804 25.7426 67.3817 25.5469 67.5775 25.2609C67.7583 24.9749 67.8638 24.5383 67.8638 23.9813C67.8638 23.605 67.8336 23.1684 67.7583 22.6867C67.698 22.205 67.6227 21.6781 67.5474 21.1362L66.1615 11.1405H72.1419V11.1104Z" fill="#101828"/>
<path id="Vector_6" d="M87.2203 12.9171C87.6119 12.5408 88.0638 12.1945 88.5459 11.8784C88.9827 11.6225 89.4799 11.3666 90.0674 11.1408C90.6549 10.9149 91.3026 10.8096 92.0106 10.8096C92.9898 10.8096 93.8032 11.0655 94.4359 11.5623C95.0686 12.059 95.4 12.7365 95.4 13.6096C95.4 13.8504 95.3699 14.1515 95.3096 14.4977C95.2494 14.844 95.1891 15.2053 95.1138 15.5816C95.0385 15.958 94.9631 16.3343 94.8728 16.7257C94.7824 17.1171 94.7221 17.4483 94.6619 17.7494L93.4718 23.2591H87.7324L89.284 15.8978C89.3142 15.6569 89.3744 15.401 89.4196 15.1451C89.4648 14.8891 89.51 14.6633 89.51 14.4526C89.51 14.1666 89.4347 13.9408 89.2991 13.7601C89.1635 13.5795 88.9526 13.4891 88.6664 13.4891C88.335 13.4891 88.0036 13.6096 87.6872 13.8504C87.3709 14.0913 87.1299 14.302 86.9642 14.4676L85.0962 23.244H79.3418L81.9479 11.1106H86.5574L87.0696 12.9171H87.2203Z" fill="#101828"/>
<path id="Vector_7" d="M95.7011 21.0459L103.248 13.0071H97.5088L97.8703 11.1104H109.756L109.304 13.1426L101.968 21.362H108.204L107.873 23.2588H95.2793L95.7011 21.0459Z" fill="#101828"/>
<path id="Vector_8" d="M115.555 17.5681C115.48 17.9896 115.435 18.381 115.404 18.7573C115.374 19.1337 115.359 19.4799 115.359 19.781C115.359 19.9466 115.374 20.1423 115.389 20.353C115.404 20.5638 115.45 20.7595 115.51 20.9251C115.57 21.1057 115.676 21.2562 115.796 21.3767C115.917 21.4971 116.097 21.5573 116.323 21.5573C116.489 21.5573 116.685 21.4971 116.896 21.3917C117.107 21.2713 117.333 21.1208 117.544 20.91C117.754 20.6993 117.965 20.4433 118.161 20.1423C118.357 19.8412 118.508 19.51 118.628 19.1186H123.253L122.515 22.1444C122.138 22.3853 121.701 22.596 121.219 22.7616C120.722 22.9272 120.21 23.0627 119.668 23.1681C119.125 23.2735 118.568 23.3487 117.995 23.3939C117.438 23.439 116.896 23.4692 116.384 23.4692C115.435 23.4692 114.561 23.3788 113.763 23.2132C112.949 23.0476 112.241 22.7466 111.638 22.3401C111.036 21.9337 110.554 21.3767 110.207 20.6842C109.861 19.9917 109.68 19.1487 109.68 18.1251C109.68 17.2068 109.831 16.3035 110.117 15.4154C110.403 14.5272 110.9 13.7444 111.578 13.0519C112.271 12.3595 113.19 11.8175 114.35 11.396C115.51 10.9896 116.956 10.7788 118.688 10.7788C120.571 10.7788 121.987 11.0648 122.936 11.6519C123.886 12.239 124.368 13.1423 124.368 14.3917C124.368 14.9035 124.292 15.4455 124.142 16.0476C123.991 16.6347 123.765 17.1466 123.464 17.553H115.555V17.5681ZM119.306 14.2111C119.306 13.624 119.216 13.2326 119.02 13.0218C118.824 12.8111 118.598 12.7057 118.342 12.7057C118.041 12.7057 117.77 12.8111 117.513 13.0068C117.257 13.2025 117.031 13.4734 116.821 13.7896C116.61 14.1207 116.429 14.4971 116.248 14.9186C116.082 15.3401 115.932 15.7917 115.826 16.2584H119.05C119.08 16.0326 119.125 15.7917 119.17 15.5509C119.201 15.3401 119.246 15.1143 119.276 14.8734C119.291 14.6476 119.306 14.4218 119.306 14.2111Z" fill="#101828"/>
<path id="Vector_9" d="M130.317 23.2436H124.563L128.57 4.27588H134.355L130.317 23.2436Z" fill="#101828"/>
<path id="Vector_10" d="M138.588 23.2436H132.833L136.841 4.27588H142.625L138.588 23.2436Z" fill="#101828"/>
</g>
</g>
<defs>
<linearGradient id="paint0_linear_2128_160493" x1="0.898997" y1="12.4934" x2="25.0626" y2="20.5143" gradientUnits="userSpaceOnUse">
<stop stop-color="#B68214"/>
<stop offset="1" stop-color="#DFBA53"/>
</linearGradient>
<linearGradient id="paint1_linear_2128_160493" x1="3.99827" y1="1.84873" x2="27.4089" y2="10.0195" gradientUnits="userSpaceOnUse">
<stop stop-color="#B68214"/>
<stop offset="1" stop-color="#DFBA53"/>
</linearGradient>
</defs>
</svg>
